<svg width="26" height="26" viewBox="0 0 26 26" fill="none" xmlns="http://www.w3.org/2000/svg">
<path d="M3.89595 11.7587C4.35302 11.7587 4.72355 11.3882 4.72355 10.9311C4.72355 10.474 4.35302 10.1035 3.89595 10.1035C3.43889 10.1035 3.06836 10.474 3.06836 10.9311C3.06836 11.3882 3.43889 11.7587 3.89595 11.7587Z" stroke="#6463AF" stroke-miterlimit="10" stroke-linecap="round" stroke-linejoin="round"/>
<path d="M6.37935 15.069C6.83642 15.069 7.20695 14.6985 7.20695 14.2414C7.20695 13.7843 6.83642 13.4138 6.37935 13.4138C5.92228 13.4138 5.55176 13.7843 5.55176 14.2414C5.55176 14.6985 5.92228 15.069 6.37935 15.069Z" stroke="#6463AF" stroke-miterlimit="10" stroke-linecap="round" stroke-linejoin="round"/>
<path d="M19.6196 15.4828C20.0767 15.4828 20.4472 15.1123 20.4472 14.6552C20.4472 14.1982 20.0767 13.8276 19.6196 13.8276C19.1625 13.8276 18.792 14.1982 18.792 14.6552C18.792 15.1123 19.1625 15.4828 19.6196 15.4828Z" stroke="#6463AF" stroke-miterlimit="10" stroke-linecap="round" stroke-linejoin="round"/>
<path d="M22.104 12.1725C22.561 12.1725 22.9316 11.802 22.9316 11.3449C22.9316 10.8879 22.561 10.5173 22.104 10.5173C21.6469 10.5173 21.2764 10.8879 21.2764 11.3449C21.2764 11.802 21.6469 12.1725 22.104 12.1725Z" stroke="#6463AF" stroke-miterlimit="10" stroke-linecap="round" stroke-linejoin="round"/>
<path d="M18.7934 9.27579C19.2505 9.27579 19.621 8.90527 19.621 8.4482C19.621 7.99113 19.2505 7.62061 18.7934 7.62061C18.3363 7.62061 17.9658 7.99113 17.9658 8.4482C17.9658 8.90527 18.3363 9.27579 18.7934 9.27579Z" stroke="#6463AF" stroke-miterlimit="10" stroke-linecap="round" stroke-linejoin="round"/>
<path d="M15.4829 4.72404C15.9399 4.72404 16.3105 4.35351 16.3105 3.89644C16.3105 3.43937 15.9399 3.06885 15.4829 3.06885C15.0258 3.06885 14.6553 3.43937 14.6553 3.89644C14.6553 4.35351 15.0258 4.72404 15.4829 4.72404Z" stroke="#6463AF" stroke-miterlimit="10" stroke-linecap="round" stroke-linejoin="round"/>
<path d="M11.7573 7.20695C12.2143 7.20695 12.5849 6.83642 12.5849 6.37935C12.5849 5.92228 12.2143 5.55176 11.7573 5.55176C11.3002 5.55176 10.9297 5.92228 10.9297 6.37935C10.9297 6.83642 11.3002 7.20695 11.7573 7.20695Z" stroke="#6463AF" stroke-miterlimit="10" stroke-linecap="round" stroke-linejoin="round"/>
<path d="M6.79537 7.20695C7.25244 7.20695 7.62296 6.83642 7.62296 6.37935C7.62296 5.92228 7.25244 5.55176 6.79537 5.55176C6.3383 5.55176 5.96777 5.92228 5.96777 6.37935C5.96777 6.83642 6.3383 7.20695 6.79537 7.20695Z" stroke="#6463AF" stroke-miterlimit="10" stroke-linecap="round" stroke-linejoin="round"/>
<path d="M13.0001 25.0002C19.6276 25.0002 25.0002 19.6276 25.0002 13.0001C25.0002 6.37264 19.6276 1 13.0001 1C6.37264 1 1 6.37264 1 13.0001C1 19.6276 6.37264 25.0002 13.0001 25.0002Z" stroke="#6463AF" stroke-miterlimit="10" stroke-linecap="round" stroke-linejoin="round"/>
<path d="M13.0003 17.1383C15.2856 17.1383 17.1383 15.2856 17.1383 13.0003C17.1383 10.7149 15.2856 8.8623 13.0003 8.8623C10.7149 8.8623 8.8623 10.7149 8.8623 13.0003C8.8623 15.2856 10.7149 17.1383 13.0003 17.1383Z" stroke="#6463AF" stroke-miterlimit="10" stroke-linecap="round" stroke-linejoin="round"/>
<path d="M1.41309 15.0691H2.24068C3.38305 15.0691 4.30967 15.9953 4.30967 17.1381C4.30967 18.2809 5.23628 19.2071 6.37865 19.2071C7.52102 19.2071 8.44764 18.2809 8.44764 17.1381C8.44764 16.4527 9.00329 15.8967 9.68903 15.8967H9.96504" stroke="#6463AF" stroke-miterlimit="10" stroke-linecap="round" stroke-linejoin="round"/>
<path d="M22.445 20.3495C22.0009 20.1608 21.6897 19.72 21.6897 19.2072C21.6897 18.5218 21.1341 17.9658 20.4484 17.9658C19.7626 17.9658 19.207 18.5218 19.207 19.2072C19.207 20.35 18.2803 21.2762 17.138 21.2762C15.9956 21.2762 15.069 20.35 15.069 19.2072C15.069 18.0644 14.1424 17.1382 13 17.1382" stroke="#6463AF" stroke-miterlimit="10" stroke-linecap="round" stroke-linejoin="round"/>
</svg>
