<svg width="39" height="37" viewBox="0 0 39 37" fill="none" xmlns="http://www.w3.org/2000/svg">
<path d="M19.3501 0C8.65918 0 0 6.91904 0 15.4615V20.6154C0 29.1579 8.65918 36.0769 19.3501 36.0769C30.0411 36.0769 38.7002 29.1579 38.7002 20.6154V15.4615C38.7002 6.91904 30.0411 0 19.3501 0ZM37.0313 21.7553C36.3053 29.0526 28.6703 34.7885 19.3501 34.7885C10.03 34.7885 2.39487 29.0526 1.66898 21.7553C4.68432 27.1588 11.4645 30.9231 19.3501 30.9231C27.2358 30.9231 34.0159 27.1588 37.0313 21.7553ZM26.6064 15.4615C26.6064 18.309 23.72 20.6154 20.1564 20.6154H18.5439C14.9802 20.6154 12.0938 18.309 12.0938 15.4615C12.0938 12.614 14.9802 10.3077 18.5439 10.3077H20.1564C23.72 10.3077 26.6064 12.614 26.6064 15.4615ZM19.7371 6.13304C19.4146 5.87535 19.4146 5.43727 19.7371 5.17958L20.9949 4.17458C21.3174 3.91688 21.8656 3.91688 22.1881 4.17458C22.5106 4.43227 22.5106 4.87035 22.1881 5.12804L20.9304 6.13304C20.6079 6.40362 20.0596 6.40362 19.7371 6.13304ZM33.4757 12.5754C33.1532 12.8331 32.6049 12.8331 32.2824 12.5754L31.0247 11.5704C30.7022 11.3127 30.7022 10.8746 31.0247 10.6169C31.3472 10.3592 31.8954 10.3592 32.2179 10.6169L33.4757 11.6219C33.8143 11.8796 33.8143 12.3177 33.4757 12.5754ZM6.83709 9.16087L8.09485 8.15587C8.41735 7.89818 8.9656 7.89818 9.28811 8.15587C9.61061 8.41356 9.61061 8.85164 9.28811 9.10933L8.03035 10.1143C7.70785 10.372 7.15959 10.372 6.83709 10.1143C6.51459 9.85664 6.51459 9.41856 6.83709 9.16087ZM16.5121 28.0369C16.1896 27.7792 16.1896 27.3412 16.5121 27.0835L17.7699 26.0785C18.0924 25.8208 18.6406 25.8208 18.9631 26.0785C19.2856 26.3362 19.2856 26.7742 18.9631 27.0319L17.7054 28.0369C17.3829 28.3075 16.8346 28.3075 16.5121 28.0369ZM27.4449 24.1715L26.1872 23.1665C25.8647 22.9088 25.8647 22.4708 26.1872 22.2131C26.5097 21.9554 27.0579 21.9554 27.3804 22.2131L28.6382 23.2181C28.9768 23.4758 28.9768 23.9138 28.6382 24.1715C28.3157 24.4292 27.7674 24.4292 27.4449 24.1715ZM10.9006 20.422C10.5781 20.6797 10.0298 20.6797 9.70731 20.422L8.4496 19.417C8.1271 19.1593 8.1271 18.7212 8.4496 18.4635C8.7721 18.2058 9.32036 18.2058 9.64286 18.4635L10.9006 19.4685C11.2392 19.7262 11.2392 20.1514 10.9006 20.422ZM13.0775 7.4215L11.8036 6.4165C11.4811 6.15881 11.4811 5.72073 11.8036 5.46304C12.1261 5.20535 12.6743 5.20535 12.9968 5.46304L14.2546 6.46804C14.5932 6.72573 14.5932 7.16381 14.2707 7.4215C13.9482 7.67919 13.4 7.67919 13.0775 7.4215ZM3.61207 16.4408C3.28957 16.1831 3.28957 15.745 3.61207 15.4873L4.86983 14.4823C5.19233 14.2246 5.74058 14.2246 6.06309 14.4823C6.38559 14.74 6.38559 15.1781 6.06309 15.4358L4.80533 16.4408C4.48283 16.7113 3.93457 16.7113 3.61207 16.4408ZM31.0247 18.0642L32.2824 17.0592C32.6049 16.8015 33.1532 16.8015 33.4757 17.0592C33.7982 17.3169 33.7982 17.755 33.4757 18.0127L32.2179 19.0177C31.8954 19.2883 31.3472 19.2883 31.0247 19.0177C30.7022 18.76 30.7022 18.3219 31.0247 18.0642ZM11.3198 25.46L10.0621 24.455C9.73956 24.1973 9.73956 23.7592 10.0621 23.5015C10.3846 23.2438 10.9328 23.2438 11.2553 23.5015L12.5131 24.5065C12.8517 24.7642 12.8517 25.2023 12.5131 25.46C12.1906 25.7177 11.6423 25.7177 11.3198 25.46ZM27.7997 8.70996C27.4772 8.45227 27.4772 8.01419 27.7997 7.7565L29.0574 6.7515C29.3799 6.49381 29.9282 6.49381 30.2507 6.7515C30.5732 7.00919 30.5732 7.44727 30.2507 7.70496L28.9929 8.70996C28.6704 8.98054 28.1222 8.98054 27.7997 8.70996Z" fill="white"/>
</svg>
