<svg width="80" height="80" viewBox="0 0 80 80" fill="none" xmlns="http://www.w3.org/2000/svg">
<path d="M9.92696 35.9653C11.4124 35.9653 12.6166 34.7611 12.6166 33.2756C12.6166 31.7901 11.4124 30.5859 9.92696 30.5859C8.4415 30.5859 7.2373 31.7901 7.2373 33.2756C7.2373 34.7611 8.4415 35.9653 9.92696 35.9653Z" stroke="#6463AF" stroke-miterlimit="10" stroke-linecap="round" stroke-linejoin="round"/>
<path d="M17.9973 46.7243C19.4827 46.7243 20.6869 45.5201 20.6869 44.0346C20.6869 42.5492 19.4827 41.345 17.9973 41.345C16.5118 41.345 15.3076 42.5492 15.3076 44.0346C15.3076 45.5201 16.5118 46.7243 17.9973 46.7243Z" stroke="#6463AF" stroke-miterlimit="10" stroke-linecap="round" stroke-linejoin="round"/>
<path d="M61.0275 48.0693C62.513 48.0693 63.7172 46.8651 63.7172 45.3796C63.7172 43.8941 62.513 42.6899 61.0275 42.6899C59.5421 42.6899 58.3379 43.8941 58.3379 45.3796C58.3379 46.8651 59.5421 48.0693 61.0275 48.0693Z" stroke="#6463AF" stroke-miterlimit="10" stroke-linecap="round" stroke-linejoin="round"/>
<path d="M69.0998 37.3102C70.5853 37.3102 71.7895 36.106 71.7895 34.6206C71.7895 33.1351 70.5853 31.9309 69.0998 31.9309C67.6144 31.9309 66.4102 33.1351 66.4102 34.6206C66.4102 36.106 67.6144 37.3102 69.0998 37.3102Z" stroke="#6463AF" stroke-miterlimit="10" stroke-linecap="round" stroke-linejoin="round"/>
<path d="M58.341 27.8967C59.8265 27.8967 61.0307 26.6925 61.0307 25.207C61.0307 23.7215 59.8265 22.5173 58.341 22.5173C56.8556 22.5173 55.6514 23.7215 55.6514 25.207C55.6514 26.6925 56.8556 27.8967 58.341 27.8967Z" stroke="#6463AF" stroke-miterlimit="10" stroke-linecap="round" stroke-linejoin="round"/>
<path d="M47.5852 13.1034C49.0706 13.1034 50.2748 11.8992 50.2748 10.4138C50.2748 8.92832 49.0706 7.72412 47.5852 7.72412C46.0997 7.72412 44.8955 8.92832 44.8955 10.4138C44.8955 11.8992 46.0997 13.1034 47.5852 13.1034Z" stroke="#6463AF" stroke-miterlimit="10" stroke-linecap="round" stroke-linejoin="round"/>
<path d="M35.4777 21.1723C36.9632 21.1723 38.1674 19.9681 38.1674 18.4826C38.1674 16.9972 36.9632 15.793 35.4777 15.793C33.9923 15.793 32.7881 16.9972 32.7881 18.4826C32.7881 19.9681 33.9923 21.1723 35.4777 21.1723Z" stroke="#6463AF" stroke-miterlimit="10" stroke-linecap="round" stroke-linejoin="round"/>
<path d="M19.3488 21.1723C20.8343 21.1723 22.0385 19.9681 22.0385 18.4826C22.0385 16.9972 20.8343 15.793 19.3488 15.793C17.8634 15.793 16.6592 16.9972 16.6592 18.4826C16.6592 19.9681 17.8634 21.1723 19.3488 21.1723Z" stroke="#6463AF" stroke-miterlimit="10" stroke-linecap="round" stroke-linejoin="round"/>
<path d="M39.5146 79.0002C61.0538 79.0002 78.5146 61.5393 78.5146 40.0001C78.5146 18.4609 61.0538 1 39.5146 1C17.9755 1 0.514648 18.4609 0.514648 40.0001C0.514648 61.5393 17.9755 79.0002 39.5146 79.0002Z" stroke="#6463AF" stroke-miterlimit="10" stroke-linecap="round" stroke-linejoin="round"/>
<path d="M39.5147 53.4486C46.942 53.4486 52.963 47.4276 52.963 40.0003C52.963 32.573 46.942 26.552 39.5147 26.552C32.0874 26.552 26.0664 32.573 26.0664 40.0003C26.0664 47.4276 32.0874 53.4486 39.5147 53.4486Z" stroke="#6463AF" stroke-miterlimit="10" stroke-linecap="round" stroke-linejoin="round"/>
<path d="M1.85547 46.7241H4.54512C8.25779 46.7241 11.2693 49.7343 11.2693 53.4483C11.2693 57.1623 14.2807 60.1724 17.9934 60.1724C21.7061 60.1724 24.7175 57.1623 24.7175 53.4483C24.7175 51.221 26.5234 49.4138 28.752 49.4138H29.649" stroke="#6463AF" stroke-miterlimit="10" stroke-linecap="round" stroke-linejoin="round"/>
<path d="M70.2096 63.8851C68.7664 63.2718 67.7551 61.8391 67.7551 60.1724C67.7551 57.9451 65.9492 56.1379 63.7206 56.1379C61.4919 56.1379 59.6861 57.9451 59.6861 60.1724C59.6861 63.8864 56.6746 66.8966 52.9619 66.8966C49.2493 66.8966 46.2378 63.8864 46.2378 60.1724C46.2378 56.4584 43.2263 53.4482 39.5137 53.4482" stroke="#6463AF" stroke-miterlimit="10" stroke-linecap="round" stroke-linejoin="round"/>
<path d="M30.2926 50.877C30.1524 50.6433 29.9569 50.3238 29.6548 50.3082C29.1624 50.2827 28.6636 50.4528 28.1838 50.5409C27.4409 50.6773 26.6665 50.6174 26.0693 51.1586C25.7891 51.4125 25.6954 51.7331 25.5866 52.0837C25.576 52.1178 25.4202 52.7487 25.4372 52.7445C25.5729 52.7106 25.5943 52.5125 25.6843 52.4055C26.0999 51.9111 26.5786 51.4687 27.0634 51.0437C27.381 50.7651 27.6785 50.5644 28.0689 50.4116C28.2232 50.3512 28.4048 50.2316 28.5774 50.2651C28.9932 50.3455 29.2015 50.7106 29.4307 51.0264C29.5937 51.2509 29.4321 50.8136 29.3101 50.7621C28.9711 50.6191 28.4827 50.8664 28.1896 50.9833C27.5105 51.2542 26.823 51.5545 26.1871 51.9171C25.9302 52.0635 25.6561 52.2303 25.5665 52.529C25.5243 52.6696 25.5454 52.8101 25.4832 52.9456C25.4242 53.074 25.3452 53.2198 25.3309 53.3622C25.2857 53.8143 25.6556 53.9854 25.9486 54.2385" stroke="#6463AF" stroke-linecap="round"/>
<path d="M35.6191 53.5661C36.1359 53.2982 36.8052 53.8641 37.3257 53.9798" stroke="#6463AF" stroke-linecap="round"/>
<path d="M44.2559 56.3069C44.5976 56.655 44.7586 57.0792 44.9195 57.5337C45.0438 57.8846 45.2968 58.971 45.2442 58.6024C45.1901 58.2241 44.9603 57.8056 44.8132 57.4561C44.7678 57.3481 44.4269 56.5467 44.6581 57.0883C44.9581 57.7912 45.2127 58.4989 45.2988 59.2632C45.3829 60.0103 45.3419 60.7766 45.3419 61.5272C45.3419 62.5836 45.3256 63.7937 45.8992 64.7306C46.1605 65.1573 46.267 64.9328 46.267 64.5352C46.267 64.1952 46.1928 63.8395 46.221 63.5009C46.2368 63.3117 46.7574 64.06 46.7899 64.1158C46.8464 64.2129 47.2093 64.9906 47.3357 64.9748C47.3919 64.9678 46.972 64.2024 46.8933 64.1388C46.6685 63.9568 47.0645 64.6954 47.2036 64.9489C47.3296 65.1788 47.4874 65.3882 47.6173 65.6155" stroke="#6463AF" stroke-linecap="round"/>
<path d="M21.9668 59.6683C22.6806 59.423 23.3557 59.0504 24.0526 58.7604C24.411 58.6113 24.935 58.5156 25.2306 58.2433C25.4818 58.0119 24.8977 57.7585 24.7134 57.8353C24.2502 58.0283 23.8515 58.4663 23.4723 58.7834C23.3688 58.8699 22.9101 59.2516 23.2194 58.8696C23.4881 58.5379 24.0871 58.218 24.0871 57.7549" stroke="#6463AF" stroke-linecap="round"/>
<path d="M14.6748 59.8752C14.9592 60.1901 15.3155 60.5966 15.7378 60.7314C15.7962 60.7501 15.674 60.6216 15.6229 60.5878C15.4543 60.476 15.2997 60.3599 15.1402 60.2372" stroke="#6463AF" stroke-linecap="round"/>
<path d="M10.6932 52.9971C10.6405 53.2556 10.5852 53.5134 10.5381 53.7728" stroke="#6463AF" stroke-linecap="round"/>
<path d="M1.95312 47.1533C2.07601 47.621 2.20989 48.0846 2.37833 48.5381C2.39303 48.5777 2.47027 48.7059 2.47027 48.699C2.47027 48.4328 2.41471 48.4018 2.43005 48.7335C2.46559 49.5021 2.4872 50.2786 2.5737 51.0434C2.64746 51.6956 2.86189 52.368 3.05062 52.9971C3.11886 53.2245 3.20343 53.7211 3.50456 53.7211" stroke="#6463AF" stroke-linecap="round"/>
<path d="M12.6582 67.3738C13.2054 67.8204 13.7402 68.2246 14.3332 68.6034C14.7337 68.8593 15.0637 69.1995 15.4623 69.4539C15.9955 69.7942 16.5568 70.0907 17.0769 70.4508C17.5086 70.7497 17.8607 71.1009 18.3181 71.3673C18.8697 71.6886 19.3645 72.0127 19.8408 72.4361C20.1397 72.7018 20.4068 73.019 20.7142 73.2692C20.7619 73.3081 21.1437 73.668 21.0187 73.6111C20.6997 73.4661 20.4958 73.1446 20.1683 73.0107C19.124 72.5834 18.2945 71.7936 17.3527 71.2007C17.181 71.0926 17.129 70.9945 17.0281 70.8128C16.918 70.6147 17.5043 70.5487 17.5423 70.5399C18.5558 70.3046 19.6033 70.1933 20.6337 70.0687C22.6754 69.8218 24.7243 69.5815 26.7763 69.4366C27.8825 69.3585 28.9938 69.3527 30.0975 69.2355C30.4793 69.195 30.7694 69.1087 31.0915 68.9022C31.4093 68.6985 31.634 68.4081 32.0511 68.4081" stroke="#6463AF" stroke-linecap="round"/>
<path d="M59.4076 63.7021C59.1584 64.0313 58.6836 64.4005 58.6836 64.8399" stroke="#6463AF" stroke-linecap="round"/>
<path d="M63.9592 69.2355C63.9459 69.3284 64.6718 69.065 64.7464 69.0373C65.1474 68.888 64.5729 69.2562 64.4706 69.3044C64.3257 69.3728 64.8973 68.6724 64.959 68.5833C65.3664 67.9948 65.6096 67.2715 65.8755 66.6124C66.1466 65.9403 66.4279 65.2865 66.4415 64.5525C66.4527 63.9465 66.4231 63.358 66.5449 62.7597C66.6669 62.1603 66.8259 61.5786 66.8782 60.9669C66.9086 60.6101 66.8921 60.2702 66.9873 59.924C67.0018 59.8715 67.1651 59.3746 67.2172 59.6166C67.3156 60.0741 67.2907 60.5446 67.4039 61.0043C67.5707 61.6813 67.758 62.3633 67.9814 63.024C68.0364 63.1868 68.1836 63.7042 68.3549 63.794C68.4497 63.8437 68.6344 63.8127 68.7169 63.7538C68.8807 63.6368 68.9047 63.8905 68.9726 64.0037C69.1099 64.2326 69.0148 64.587 69.2858 64.2709" stroke="#6463AF" stroke-linecap="round"/>
<path d="M43.2207 78.0271C43.3659 78.0271 43.5345 78.0302 43.6718 78.0817C43.8032 78.131 43.3753 78.3182 43.3241 78.3374" stroke="#6463AF" stroke-linecap="round"/>
<path d="M28.0865 52.6406C28.0865 53.9172 27.868 55.0542 27.5949 56.2936C27.4172 57.1004 27.2746 58.1433 26.8613 58.8725C26.5994 59.3348 26.7213 58.6392 26.7328 58.4263C26.7758 57.6308 27.0766 56.8241 27.2697 56.0515C27.4164 55.4649 27.2202 56.4441 27.1639 56.6036C27.0519 56.9208 26.929 57.2867 26.8689 57.6171C26.8542 57.6978 26.8177 58.1962 26.8765 57.8289C26.975 57.2132 27.1965 56.5889 27.4361 56.0137C27.4932 55.8767 27.7991 55.4316 27.7991 55.2952C27.7991 55.0194 27.5226 55.5045 27.5118 55.5599C27.2889 56.6966 26.6641 57.5276 26.1807 58.4944" stroke="#6463AF" stroke-width="5" stroke-linecap="round"/>
<path d="M30.4009 52.6406C30.8718 53.2203 31.1172 54.0225 31.6412 54.5465C32.1109 55.0162 32.6956 55.3014 33.2143 55.6961C33.9702 56.2712 34.7557 56.7039 35.6874 56.9213C35.8746 56.965 36.2845 57.0427 35.6572 56.9667C34.4664 56.8223 32.9303 56.7747 31.8379 56.2406C31.7581 56.2016 32.2423 55.9351 32.2765 55.9078C32.527 55.7086 32.7233 55.4356 32.9042 55.1742C33.1589 54.8063 33.3661 55.2177 33.7437 55.3331C34.7049 55.6267 35.6551 55.9495 36.6177 56.2482C37.1836 56.4238 37.8316 56.3332 38.3572 56.5885C38.9119 56.8579 39.4835 57.0729 40.0437 57.3297C41.4793 57.9877 42.3193 60.1815 42.7891 61.5574C43.4792 63.5785 44.1568 65.4731 44.4227 67.6003C44.5216 68.3911 44.8701 69.0287 45.2093 69.733C45.388 70.1043 45.4901 70.4381 44.9748 70.5347C44.1901 70.6818 43.0304 70.6935 42.3277 70.6935C39.7361 70.6935 37.0548 70.6018 34.5 70.1263C32.7491 69.8004 32.233 69.1683 31.7773 67.5549C31.4351 66.3431 31.4669 65.0705 31.1345 63.8566C30.6956 62.2537 29.9774 61.0761 29.9925 59.3566C29.996 58.9571 29.8775 58.173 30.4009 58.0104C32.0867 57.4866 34.064 59.5623 35.0899 60.5288C37.9054 63.1816 40.4016 66.1948 40.2328 70.2473C40.2296 70.3235 40.2076 70.5503 40.2025 70.4742C40.1554 69.7577 40.1816 69.8017 40.0815 68.9011C39.8519 66.8348 39.6948 64.2354 38.2588 62.586C37.6291 61.8626 36.7889 61.4548 35.9143 61.1112C35.1033 60.7926 34.7727 60.7633 34.2126 61.6255C33.2683 63.0793 32.5613 65.024 33.0026 66.7683C33.3129 67.9952 34.3092 68.7928 35.4 67.865C36.9735 66.5266 37.5822 64.292 37.7975 62.3213C37.8294 62.0296 38.2015 59.7109 37.4572 59.7801C34.4014 60.0644 33.49 64.7775 33.5622 67.1616C33.5687 67.3751 33.7907 68.2019 33.5773 68.4019C33.1672 68.7865 31.9 68.5683 31.4068 68.5683C30.8728 68.5683 30.4485 68.6305 30.0454 68.2356C29.0724 67.282 28.2115 66.0322 27.8446 64.7112C27.6474 64.0014 27.554 63.4083 27.058 62.8204C26.837 62.5585 25.816 61.3496 25.3639 61.6784C24.5114 62.2984 24.442 62.9958 23.1706 62.5482C22.4119 62.281 22.1882 62.0408 21.4992 62.6238C21.3992 62.7084 21.3294 62.696 21.2118 62.7221C21.0124 62.7664 22.1036 62.4808 22.1572 62.4574C23.0057 62.0873 24.0055 61.2171 24.9555 61.2171" stroke="#6463AF" stroke-width="5" stroke-linecap="round"/>
<path d="M4.94434 49.7817C5.39243 51.4621 7.26711 52.2808 8.04517 53.8658C8.46335 54.7176 8.77961 55.6478 9.15693 56.5204C9.46102 57.2236 9.94043 57.8101 10.1174 58.5624C10.4843 60.1214 12.1113 61.1688 13.1805 62.238C14.4282 63.4858 16.1883 63.9088 17.8468 64.3784C22.3095 65.6418 27.0652 66.1053 31.6266 66.9346" stroke="#6463AF" stroke-width="5" stroke-linecap="round"/>
<path d="M15.5622 65.165C16.74 65.5576 17.7172 66.3445 18.7387 67.0255C19.9434 67.8287 21.1819 68.4075 22.5051 68.9767C26.8356 70.8399 31.5406 72.0101 36.1185 73.1137C41.4451 74.3978 46.811 73.7423 52.0538 72.5087C55.2704 71.7518 58.0866 69.8434 60.8798 68.1675C62.3819 67.2663 63.7537 66.4308 63.7537 64.5524C63.7537 63.0528 63.8899 61.5351 63.8899 60.0221C63.8899 59.1122 63.3797 60.6517 63.3378 60.8541C63.1532 61.7465 62.6437 62.5912 62.3924 63.4709C62.167 64.26 61.7659 65.2379 61.2958 65.9137C60.9174 66.4576 60.6247 67.1444 60.1538 67.6154C58.7678 69.0013 56.3015 69.4036 54.4664 69.7936C52.9531 70.1151 51.4964 70.1797 49.9588 70.3078C48.7059 70.4122 47.7232 70.0126 46.8655 69.0978C46.4037 68.6051 45.9343 68.1247 45.4664 67.6381C44.8184 66.9642 46.0658 68.0411 46.3134 68.1751C47.3964 68.7608 48.6215 68.9817 49.7924 69.3095C50.8257 69.5988 51.767 69.6574 52.8328 69.6574C53.3449 69.6574 53.2193 69.8001 52.742 70.0204C51.2649 70.7022 49.6899 71.2336 48.1815 71.8507C44.9558 73.1703 41.7515 74.2531 38.2361 74.286C36.5841 74.3014 34.9145 74.3396 33.3051 73.9078C32.0225 73.5637 30.8736 72.9404 29.5614 72.6524C27.1187 72.1162 24.776 71.5946 22.5202 70.4667C21.731 70.0721 21.0217 69.5395 20.2211 69.1658C19.2159 68.6968 18.2263 68.2571 17.3925 67.5095C16.3894 66.6102 15.4898 65.598 14.4429 64.7415C13.498 63.9683 12.9118 63.5648 12.4614 62.3364C12.4327 62.2583 12.2382 61.9608 12.3858 61.928C13.3561 61.7124 14.6684 61.9915 15.6681 62.0415C16.5234 62.0842 17.3072 62.4525 18.1185 62.6843C19.7868 63.161 20.8392 61.8978 22.3689 61.8978" stroke="#6463AF" stroke-width="5" stroke-linecap="round"/>
<path d="M66.885 64.2119C65.9778 64.2119 65.2292 65.2348 64.4649 65.6791C63.446 66.2715 62.3872 66.7507 61.4397 67.4489C59.5019 68.8767 57.1166 69.4739 55.1019 70.7464C53.9384 71.4812 52.6914 72.2466 51.4414 72.8186C50.1101 73.4279 48.5275 73.714 47.138 74.2102C45.5064 74.7929 43.7949 74.8682 42.1086 75.1783C40.366 75.4988 38.3711 75.2388 36.6103 75.2388C34.4662 75.2388 31.8285 75.6969 29.8263 74.8001C28.964 74.4139 27.9367 74.008 27.2019 73.401C26.4186 72.7539 25.1585 72.7056 24.2448 72.2136C23.4065 71.7622 22.4998 71.2666 21.5448 71.1472C20.7841 71.0521 20.5776 70.4196 20.3271 69.7934" stroke="#6463AF" stroke-width="5" stroke-linecap="round"/>
<path d="M5.0799 51.2793C5.6826 52.8092 6.6351 54.1746 7.17485 55.7339C7.36419 56.2809 7.12715 55.0903 7.09166 54.9852C6.79267 54.0993 6.25118 53.4661 5.65469 52.7768C5.43325 52.5209 5.15876 52.1189 4.88326 51.9222C4.41457 51.5874 5.08106 53.065 5.29166 53.6011C5.70997 54.6659 6.18402 55.6567 6.84964 56.5885" stroke="#6463AF" stroke-width="3" stroke-linecap="round"/>
<path d="M5.625 53.1851C5.69382 55.1809 7.19673 56.8854 7.66701 58.7666" stroke="#6463AF" stroke-width="3" stroke-linecap="round"/>
<path d="M12.8395 67.0709C12.9668 67.0709 13.5683 67.2281 13.6261 67.1768C13.8715 66.9586 12.9444 66.3001 12.8471 66.1785C12.128 65.2796 11.842 64.3195 11.342 63.3196C10.4596 61.5548 9.61779 59.629 8.21094 58.2222" stroke="#6463AF" stroke-width="3" stroke-linecap="round"/>
<path d="M8.34766 59.8557C8.93001 60.9145 9.70284 61.9607 10.3897 62.9565C10.7006 63.4074 11.1297 64.1055 11.6149 64.3481" stroke="#6463AF" stroke-width="3" stroke-linecap="round"/>
<path d="M3.03809 48.5566C4.11908 48.9308 5.23587 49.4958 6.36581 49.676C7.31125 49.8267 7.97051 49.8799 8.48345 50.7348" stroke="#6463AF" stroke-width="3" stroke-linecap="round"/>
<path d="M8.21094 50.5986C8.96551 51.559 9.16388 53.0727 9.16388 54.2743" stroke="#6463AF" stroke-width="3" stroke-linecap="round"/>
<path d="M56.3271 73.2917C56.6048 73.3362 56.9626 73.2237 57.2285 73.169C57.6475 73.0829 58.0951 72.9953 58.4643 72.767C58.984 72.4456 59.3906 71.9946 59.8312 71.5799C60.6431 70.8157 61.6208 70.2825 62.4486 69.5317C63.3736 68.6927 64.4481 68.0415 65.3876 67.2147C65.5501 67.0718 65.7198 66.967 65.8955 66.8423C66.1327 66.674 66.328 66.4586 66.5557 66.2795C66.6525 66.2033 66.7051 66.1762 66.744 66.0552C66.768 65.9804 66.7793 65.9428 66.8392 65.9028" stroke="#6463AF" stroke-width="3" stroke-linecap="round"/>
<path d="M66.1536 60.4945C66.1536 60.0086 66.0704 59.7025 65.8616 59.28C65.7131 58.9794 65.4764 58.596 65.193 58.3997C64.8462 58.1597 64.1648 57.9449 63.7457 58.0739C63.5026 58.1487 63.2666 58.2529 63.0241 58.3257C62.8825 58.3682 62.6863 58.3815 62.5607 58.4569C62.4667 58.5133 62.368 58.5848 62.2603 58.6156C62.1612 58.6439 62.2828 58.4577 62.2941 58.4442C62.3626 58.3619 62.4522 58.339 62.548 58.3045C62.5734 58.2954 62.6421 58.2391 62.6052 58.2791C62.5121 58.38 62.4595 58.5312 62.3914 58.6494C62.3106 58.7899 62.3128 58.9876 62.2137 59.1149C62.1472 59.2005 61.8638 59.1552 61.799 59.0811C61.7181 58.9887 62.2782 58.3541 62.3555 58.2643C62.4685 58.133 62.6841 58.1238 62.84 58.057" stroke="#6463AF" stroke-width="3" stroke-linecap="round"/>
<path d="M60.8977 59.771C60.751 60.276 60.7314 60.7469 60.6988 61.2649C60.6515 62.0159 60.4647 62.7002 60.2586 63.4189C60.1257 63.8825 60.0141 64.4494 59.5942 64.7519C59.2163 65.0243 58.8064 65.2585 58.5363 65.6533C58.2652 66.0495 58.0133 66.4162 57.6306 66.724C57.1651 67.0985 56.5911 67.4299 56.0606 67.7016C55.7484 67.8615 55.4396 68.0323 55.1084 68.1502C54.9164 68.2185 54.7079 68.3787 54.499 68.3787" stroke="#6463AF" stroke-width="3" stroke-linecap="round"/>
<path d="M46.4629 65.7886C46.5411 66.0233 46.9217 66.1283 47.1252 66.2118C47.506 66.368 47.8925 66.4869 48.2657 66.6625C48.5619 66.8019 48.8405 66.9774 49.129 67.1216" stroke="#6463AF" stroke-width="3" stroke-linecap="round"/>
<path d="M37.9697 54.4006C38.1596 54.5079 38.3259 54.6306 38.5326 54.7053C38.7385 54.7798 38.9985 54.7585 39.2139 54.7815C39.9839 54.8638 40.6568 55.0785 41.2981 55.5242C42.0654 56.0574 42.6438 56.7261 43.0649 57.5619C43.2178 57.8653 43.3101 58.2055 43.4754 58.5013C43.677 58.8621 43.2455 57.7047 43.0776 57.327C42.926 56.9857 42.7317 56.6452 42.6206 56.2881C42.6115 56.2588 42.5393 56.0348 42.6523 56.1442C42.8426 56.3283 42.9986 56.5894 43.1284 56.8171C43.6869 57.7965 44.1367 59.0062 44.2075 60.1391C44.2258 60.4312 44.1922 60.7285 44.2245 61.0193C44.2724 61.4504 44.4092 61.8919 44.5567 62.2974C44.6526 62.5611 44.7567 62.8229 44.8635 63.0824C44.8926 63.1532 44.9138 63.3191 44.9778 63.3511" stroke="#6463AF" stroke-width="3" stroke-linecap="round"/>
<path d="M22.2393 73.5964C22.7895 73.6154 23.3413 73.8044 23.877 73.9223C24.2125 73.9961 24.5556 74.0898 24.8757 74.2143C25.3647 74.4045 25.8982 74.4602 26.4034 74.5952C27.0185 74.7594 27.6243 74.9828 28.2316 75.1749C28.4321 75.2384 28.6256 75.3108 28.822 75.3844C28.9448 75.4305 28.5582 75.3991 28.4284 75.3802C27.6034 75.2602 26.9448 75.0888 26.3146 74.5486" stroke="#6463AF" stroke-width="3" stroke-linecap="round"/>
<path d="M32.9043 76.872C33.9214 76.872 34.9384 76.872 35.9555 76.872C37.1505 76.872 38.3389 76.9482 39.5357 76.9482C39.7664 76.9482 40.5459 76.9482 39.8065 76.9482C38.9659 76.9482 38.1192 76.9164 37.2801 76.9778C36.8587 77.0087 37.2765 77.2442 37.479 77.2825C38.059 77.3925 38.6942 77.3291 39.2818 77.3291C40.0434 77.3291 40.8054 77.3354 41.567 77.3291C42.5076 77.3212 43.4485 77.1899 44.377 77.0498C45.4811 76.8832 46.6415 76.6835 47.6906 76.2923C48.3425 76.0492 49.0009 75.7642 49.6669 75.5644C49.9726 75.4727 50.2974 75.4492 50.6021 75.3486C51.0215 75.21 51.4379 75.0418 51.8548 74.8915C52.7054 74.5847 53.5054 74.1587 54.3452 73.8272C54.512 73.7614 54.7192 73.7284 54.8615 73.6177C54.9644 73.5377 55.2957 73.5966 55.4117 73.5966C55.4137 73.5966 55.7744 73.5712 55.6063 73.6092C55.262 73.6872 54.9175 73.7691 54.5801 73.8737C54.2666 73.9709 53.9861 74.1157 53.6956 74.261C53.4451 74.3862 53.119 74.4586 52.8492 74.5318C52.3557 74.6658 51.8719 74.8286 51.385 74.9846C51.0514 75.0916 50.7363 75.2184 50.4201 75.3697C50.274 75.4397 49.6918 75.5823 49.7451 75.8225C49.7896 76.0227 50.3228 75.7463 50.4476 75.6892C50.8552 75.5029 51.2714 75.3504 51.7045 75.2364C52.5388 75.0169 53.3318 74.6658 54.1442 74.3837C54.4575 74.2749 54.7817 74.1849 55.1006 74.0938C55.2591 74.0485 55.7249 73.9645 55.7947 73.8251" stroke="#6463AF" stroke-width="3" stroke-linecap="round"/>
<path d="M25.629 54.2864C25.505 54.551 25.3775 54.8266 25.3011 55.1095C25.2766 55.2002 25.4607 54.6788 25.4767 54.6292" stroke="#6463AF" stroke-linecap="round"/>
<path d="M15.3838 69.6355C15.6225 69.7181 15.8157 69.9505 16.0228 70.0925C16.186 70.2045 16.3466 70.2917 16.5391 70.3422C16.7966 70.4098 17.0234 70.5347 17.2881 70.5877" stroke="#6463AF" stroke-linecap="round"/>
<path d="M16.6406 70.74C16.8332 70.74 17.0212 70.7542 17.2119 70.7781" stroke="#6463AF" stroke-linecap="round"/>
<path d="M13.0225 58.895C13.4266 59.2087 13.876 59.4574 14.2793 59.771" stroke="#6463AF" stroke-linecap="round"/>
<path d="M4.41489 53.2581C4.02896 53.2774 4.14828 53.7392 4.14828 54.0198C4.14828 54.2674 4.16054 54.4795 4.2837 54.7011C4.38704 54.8871 4.48273 55.0512 4.54819 55.2576C4.83022 56.1471 5.18587 57.0039 5.50249 57.8793C5.80257 58.7089 6.13533 59.6641 6.81015 60.264C7.13341 60.5513 7.33209 61.0077 7.56977 61.3643C7.67323 61.5194 7.74823 61.6661 7.9189 61.7515" stroke="#6463AF" stroke-linecap="round"/>
<path d="M3.84375 47.3163C4.10347 47.2978 4.34665 47.4442 4.58856 47.5216C4.90981 47.6242 5.22658 47.6701 5.55767 47.7183C6.0448 47.7894 6.48499 47.8958 6.92881 48.1161C7.35433 48.3274 7.74153 48.5255 8.06719 48.8715C8.30247 49.1215 8.53087 49.3754 8.77392 49.6185C9.01279 49.8573 9.25805 50.1154 9.45314 50.3908C9.51917 50.484 9.52328 50.4401 9.48487 50.3421C9.35736 50.0166 9.13832 49.7334 8.98551 49.4196C8.93755 49.3211 8.89213 49.2171 8.83105 49.1254C8.79816 49.0761 8.73828 49.0835 8.69986 49.045C8.42358 48.7688 9.23121 49.6266 9.42563 49.9655C9.83432 50.6779 10.1256 51.3433 10.3186 52.1364C10.3593 52.3038 10.3801 52.4695 10.4519 52.6273C10.4879 52.7065 10.4757 52.5936 10.4794 52.5596C10.5008 52.3598 10.5379 52.1639 10.5471 51.9629C10.5624 51.6261 10.8365 52.5899 10.5936 52.1597C10.1987 51.4602 10.1314 50.6309 9.77264 49.9189C9.53112 49.4397 8.97814 49.2042 8.64273 48.8017" stroke="#6463AF" stroke-linecap="round"/>
<path d="M33.0635 52.5811C33.6377 52.6252 34.1436 53.0866 34.6265 53.3626" stroke="#6463AF" stroke-linecap="round"/>
</svg>
