<svg width="37" height="35" viewBox="0 0 37 35" fill="none" xmlns="http://www.w3.org/2000/svg">
<path d="M0 9.91479V24.2125C0 26.7546 0.660286 28.8701 1.92583 30.4911C2.45773 31.2077 3.13636 31.8388 3.90669 32.3337C5.41067 33.3574 7.31817 33.9544 9.57414 34.0909V0.0532227C3.55821 0.411515 0 4.04562 0 9.91479Z" fill="white"/>
<path d="M34.7585 3.63411C34.2266 2.91752 33.548 2.28625 32.7777 1.79146C31.0352 0.614215 28.7609 0 26.0281 0H12.3271V34.1231H26.0281C32.7043 34.1231 36.6844 30.4207 36.6844 24.2103V9.91276C36.6844 7.37059 36.0241 5.25496 34.7585 3.63411ZM24.7625 20.525C25.2944 21.0198 25.2944 21.8388 24.7625 22.3336C24.4874 22.5895 24.1389 22.7089 23.7904 22.7089C23.442 22.7089 23.0935 22.5895 22.8184 22.3336L18.123 17.9658C17.5911 17.471 17.5911 16.6521 18.123 16.1573L22.8184 11.7895C23.3503 11.2947 24.2306 11.2947 24.7625 11.7895C25.2944 12.2843 25.2944 13.1033 24.7625 13.5981L21.0576 17.0615L24.7625 20.525Z" fill="white"/>
</svg>
